<svg id="Layer_1" data-name="Layer 1" xmlns="http://www.w3.org/2000/svg" viewBox="0 0 34.6 34.6"><defs><style>.cls-1{fill:#d0d0d6;}.cls-2{fill:#fff;}</style></defs><title>guest-icon-reviews</title><circle class="cls-1" cx="17.3" cy="17.3" r="17.3"/><path class="cls-2" d="M17.3,15.9a5.3,5.3,0,0,0,3.9-1.6,5.3,5.3,0,0,0,1.6-3.9,5.3,5.3,0,0,0-1.6-3.9,5.6,5.6,0,0,0-7.8,0,5.3,5.3,0,0,0-1.6,3.9,5.3,5.3,0,0,0,1.6,3.9,5.3,5.3,0,0,0,3.9,1.6Zm0,0"/><path class="cls-2" d="M27.3,21.7a8.9,8.9,0,0,0-.2-1.5l-.3-1.6-.7-1.4a4.4,4.4,0,0,0-.8-1.1,3.5,3.5,0,0,0-1.3-.8,4.1,4.1,0,0,0-1.6-.3l-.6.3-1,.7a5.9,5.9,0,0,1-1.6.7,6.2,6.2,0,0,1-3.8,0,4.8,4.8,0,0,1-1.6-.7l-1-.7-.6-.3a3.8,3.8,0,0,0-1.6.3,3.5,3.5,0,0,0-1.3.8l-.9,1.1-.6,1.4-.3,1.6a8.9,8.9,0,0,0-.2,1.5,7.6,7.6,0,0,0-.1,1.5,4.1,4.1,0,0,0,1,2.8,4.3,4.3,0,0,0,2.8.9H23.6a4,4,0,0,0,2.7-.9,3.8,3.8,0,0,0,1.1-2.8,7.6,7.6,0,0,0-.1-1.5Zm0,0"/></svg>